<?xml version="1.0" standalone="no"?>
<!DOCTYPE svg PUBLIC "-//W3C//DTD SVG 20010904//EN"
 "http://www.w3.org/TR/2001/REC-SVG-20010904/DTD/svg10.dtd">
<svg version="1.0" xmlns="http://www.w3.org/2000/svg"
 width="512.000000pt" height="512.000000pt" viewBox="0 0 512.000000 512.000000"
 preserveAspectRatio="xMidYMid meet">
<metadata>
Created by potrace 1.14, written by Peter Selinger 2001-2017
</metadata>
<g transform="translate(0.000000,512.000000) scale(0.100000,-0.100000)"
fill="#000000" stroke="none">
<path d="M2450 5113 c-827 -40 -1583 -471 -2029 -1158 -274 -420 -413 -890
-413 -1395 0 -418 87 -784 274 -1153 64 -127 202 -346 262 -418 l26 -31 0 633
0 632 -24 22 c-33 31 -38 93 -34 428 l3 279 28 24 28 24 498 0 499 0 7 109 c4
60 4 115 0 121 -5 7 -41 10 -111 8 -97 -2 -105 -1 -129 22 -17 16 -25 34 -25
56 0 43 14 53 365 279 122 78 262 169 409 265 87 57 202 131 255 165 l96 61 5
296 5 296 24 26 c30 31 54 32 146 6 84 -24 274 -71 445 -111 69 -16 134 -33
145 -38 11 -6 47 -15 80 -22 98 -19 115 -32 115 -90 0 -49 -23 -67 -117 -89
-43 -10 -159 -39 -258 -65 -151 -40 -285 -73 -402 -100 -20 -5 -23 -12 -23
-55 0 -41 4 -52 23 -63 114 -70 283 -178 477 -306 127 -84 132 -88 178 -116
37 -23 235 -150 359 -232 110 -72 128 -109 78 -158 -23 -24 -31 -25 -135 -25
l-110 0 0 -122 0 -123 482 3 c266 2 497 1 515 -3 19 -3 40 -17 51 -33 17 -25
18 -49 14 -356 l-4 -330 -29 -27 -29 -27 2 -678 3 -679 64 79 c201 246 374
571 468 881 122 402 139 862 48 1280 -84 384 -266 763 -515 1071 -82 101 -263
282 -364 364 -250 202 -572 373 -881 467 -249 75 -594 119 -845 106z"/>
<path d="M2600 4449 c0 -92 2 -101 18 -96 40 12 184 48 275 68 53 13 94 26 90
30 -6 5 -217 61 -355 93 l-28 6 0 -101z"/>
<path d="M2370 3855 c-80 -51 -172 -110 -205 -131 -33 -21 -136 -88 -230 -149
-93 -61 -193 -126 -222 -144 l-52 -34 32 -21 c17 -12 34 -32 38 -46 4 -14 7
-575 8 -1247 l1 -1223 120 0 120 0 0 578 c0 548 1 580 18 595 17 15 68 17 525
17 494 0 508 -1 527 -20 20 -20 20 -33 20 -595 l0 -575 120 0 120 0 0 1238 c0
975 3 1242 13 1254 6 9 25 22 41 30 l28 15 -83 53 c-46 29 -122 78 -169 108
-107 69 -212 137 -365 236 -66 43 -147 96 -179 117 -33 21 -64 39 -70 39 -6 0
-76 -43 -156 -95z m262 -475 c113 -23 143 -34 219 -83 130 -83 235 -228 264
-364 19 -90 19 -230 -1 -307 -34 -132 -132 -270 -247 -349 -144 -99 -321 -131
-488 -87 -118 30 -191 72 -286 164 -124 121 -183 257 -183 426 0 208 109 406
284 515 72 44 128 66 236 90 78 18 93 17 202 -5z"/>
<path d="M2459 3230 c-165 -20 -326 -159 -371 -319 -45 -164 -7 -318 110 -443
131 -140 352 -179 525 -92 110 55 201 161 233 272 22 76 20 202 -6 284 -62
199 -269 325 -491 298z m116 -65 c14 -13 26 -32 26 -42 3 -46 -3 -360 -7 -375
-8 -29 -238 -178 -274 -178 -39 0 -70 31 -70 71 0 47 12 61 109 125 l91 59 0
158 c0 154 1 158 25 182 13 14 36 25 50 25 14 0 37 -11 50 -25z"/>
<path d="M670 2615 l0 -225 448 0 449 0 6 217 c3 120 3 221 1 225 -3 5 -207 8
-455 8 l-449 0 0 -225z"/>
<path d="M3470 2615 l0 -225 454 0 453 0 5 218 c3 119 4 220 1 225 -2 4 -209
7 -459 7 l-454 0 0 -225z"/>
<path d="M730 1545 l0 -685 420 0 420 0 0 593 c0 327 3 635 6 685 l7 92 -427
0 -426 0 0 -685z m719 551 c22 -23 22 -26 19 -286 l-3 -262 -28 -24 -28 -24
-257 0 c-186 1 -261 4 -273 13 -36 27 -39 52 -39 307 l0 251 25 24 24 25 269
0 269 0 22 -24z"/>
<path d="M1000 1810 l0 -160 155 0 155 0 0 160 0 160 -155 0 -155 0 0 -160z"/>
<path d="M3470 1545 l0 -685 425 0 425 0 0 685 0 685 -425 0 -425 0 0 -685z
m714 552 l23 -23 -4 -264 -5 -265 -24 -22 c-25 -23 -29 -23 -285 -23 l-260 0
-24 25 -25 24 0 263 c0 145 4 268 8 274 20 30 52 33 310 34 261 0 263 0 286
-23z"/>
<path d="M3740 1810 l0 -160 150 0 150 0 0 63 c0 34 3 106 7 160 l6 97 -156 0
-157 0 0 -160z"/>
<path d="M2140 1845 l0 -55 390 0 390 0 0 55 0 55 -390 0 -390 0 0 -55z"/>
<path d="M2140 1245 l0 -385 155 0 155 0 0 385 0 385 -155 0 -155 0 0 -385z"/>
<path d="M2600 1245 l0 -385 155 0 155 0 0 303 c0 166 3 339 7 385 l6 82 -162
0 -161 0 0 -385z"/>
<path d="M837 672 c316 -273 628 -449 988 -559 402 -122 862 -139 1280 -48
401 88 779 274 1106 545 97 80 101 85 73 87 -16 1 -807 4 -1757 5 l-1728 3 38
-33z"/>
</g>
</svg>
